<mxfile host="app.diagrams.net" modified="2023-11-02T23:44:18.972Z" agent="Mozilla/5.0 (Macintosh; Intel Mac OS X 10.15; rv:109.0) Gecko/20100101 Firefox/115.0" etag="IMexJ60YO9MkB8vV0IqR" version="22.0.8" type="device">
  <diagram name="Page-1" id="7e0a89b8-554c-2b80-1dc8-d5c74ca68de4">
    <mxGraphModel dx="500" dy="335" grid="1" gridSize="10" guides="1" tooltips="1" connect="1" arrows="1" fold="1" page="1" pageScale="1" pageWidth="1100" pageHeight="850" background="none" math="0" shadow="0">
      <root>
        <mxCell id="0" />
        <mxCell id="1" parent="0" />
        <mxCell id="2aZPuvOQEmQPEWgfhbBd-3" value="" style="edgeStyle=orthogonalEdgeStyle;rounded=0;orthogonalLoop=1;jettySize=auto;html=1;endArrow=none;endFill=0;entryX=0;entryY=1;entryDx=0;entryDy=0;entryPerimeter=0;" edge="1" parent="1" source="1cb643a89b7d889d-5" target="2aZPuvOQEmQPEWgfhbBd-11">
          <mxGeometry relative="1" as="geometry">
            <mxPoint x="342" y="170" as="targetPoint" />
            <Array as="points">
              <mxPoint x="340" y="170" />
            </Array>
          </mxGeometry>
        </mxCell>
        <mxCell id="1cb643a89b7d889d-5" value="Resistor: R" style="verticalLabelPosition=bottom;shadow=0;dashed=0;align=center;html=1;verticalAlign=top;strokeWidth=1;shape=mxgraph.electrical.resistors.resistor_2;rounded=1;comic=0;labelBackgroundColor=none;fontFamily=Verdana;fontSize=12;" parent="1" vertex="1">
          <mxGeometry x="252" y="160" width="100" height="20" as="geometry" />
        </mxCell>
        <mxCell id="2aZPuvOQEmQPEWgfhbBd-1" value="Capacitor: C" style="pointerEvents=1;verticalLabelPosition=bottom;shadow=0;dashed=0;align=center;html=1;verticalAlign=top;shape=mxgraph.electrical.capacitors.capacitor_1;" vertex="1" parent="1">
          <mxGeometry x="430" y="140" width="90" height="60" as="geometry" />
        </mxCell>
        <mxCell id="2aZPuvOQEmQPEWgfhbBd-4" value="" style="edgeStyle=orthogonalEdgeStyle;rounded=0;orthogonalLoop=1;jettySize=auto;html=1;endArrow=none;endFill=0;exitX=1;exitY=1;exitDx=0;exitDy=0;exitPerimeter=0;" edge="1" parent="1" source="2aZPuvOQEmQPEWgfhbBd-11" target="2aZPuvOQEmQPEWgfhbBd-1">
          <mxGeometry relative="1" as="geometry">
            <mxPoint x="442" y="170" as="sourcePoint" />
            <Array as="points">
              <mxPoint x="450" y="170" />
              <mxPoint x="450" y="170" />
            </Array>
          </mxGeometry>
        </mxCell>
        <mxCell id="2aZPuvOQEmQPEWgfhbBd-6" value="Battery/generator: E(t)&lt;span style=&quot;white-space: pre;&quot;&gt;&#x9;&lt;/span&gt;" style="pointerEvents=1;verticalLabelPosition=bottom;shadow=0;dashed=0;align=center;html=1;verticalAlign=top;shape=mxgraph.electrical.signal_sources.source;aspect=fixed;points=[[0.5,0,0],[1,0.5,0],[0.5,1,0],[0,0.5,0]];elSignalType=ac;" vertex="1" parent="1">
          <mxGeometry x="352" y="270" width="60" height="60" as="geometry" />
        </mxCell>
        <mxCell id="2aZPuvOQEmQPEWgfhbBd-8" style="edgeStyle=orthogonalEdgeStyle;rounded=0;orthogonalLoop=1;jettySize=auto;html=1;exitX=1;exitY=0.5;exitDx=0;exitDy=0;exitPerimeter=0;entryX=1;entryY=0.5;entryDx=0;entryDy=0;entryPerimeter=0;" edge="1" parent="1" source="2aZPuvOQEmQPEWgfhbBd-1" target="2aZPuvOQEmQPEWgfhbBd-6">
          <mxGeometry relative="1" as="geometry" />
        </mxCell>
        <mxCell id="2aZPuvOQEmQPEWgfhbBd-9" style="edgeStyle=orthogonalEdgeStyle;rounded=0;orthogonalLoop=1;jettySize=auto;html=1;exitX=0;exitY=0.5;exitDx=0;exitDy=0;exitPerimeter=0;entryX=0;entryY=0.5;entryDx=0;entryDy=0;entryPerimeter=0;" edge="1" parent="1" source="2aZPuvOQEmQPEWgfhbBd-6" target="1cb643a89b7d889d-5">
          <mxGeometry relative="1" as="geometry" />
        </mxCell>
        <mxCell id="2aZPuvOQEmQPEWgfhbBd-11" value="Inductor: I" style="pointerEvents=1;verticalLabelPosition=bottom;shadow=0;dashed=0;align=center;html=1;verticalAlign=top;shape=mxgraph.electrical.inductors.inductor_3;" vertex="1" parent="1">
          <mxGeometry x="340" y="162" width="100" height="8" as="geometry" />
        </mxCell>
      </root>
    </mxGraphModel>
  </diagram>
</mxfile>
